<?xml version="1.0" encoding="UTF-8"?>
<svg xmlns="http://www.w3.org/2000/svg" xmlns:xlink="http://www.w3.org/1999/xlink" viewBox="0 0 35 35" width="35px" height="35px">
<g id="surface3344422">
<path style=" stroke:none;fill-rule:nonzero;fill:rgb(100%,100%,100%);fill-opacity:1;" d="M 3.5 8.167969 C 3.078125 8.160156 2.6875 8.382812 2.476562 8.746094 C 2.265625 9.109375 2.265625 9.558594 2.476562 9.921875 C 2.6875 10.285156 3.078125 10.507812 3.5 10.5 L 31.5 10.5 C 31.921875 10.507812 32.3125 10.285156 32.523438 9.921875 C 32.734375 9.558594 32.734375 9.109375 32.523438 8.746094 C 32.3125 8.382812 31.921875 8.160156 31.5 8.167969 Z M 3.5 16.332031 C 3.078125 16.328125 2.6875 16.546875 2.476562 16.910156 C 2.265625 17.273438 2.265625 17.726562 2.476562 18.089844 C 2.6875 18.453125 3.078125 18.671875 3.5 18.667969 L 31.5 18.667969 C 31.921875 18.671875 32.3125 18.453125 32.523438 18.089844 C 32.734375 17.726562 32.734375 17.273438 32.523438 16.910156 C 32.3125 16.546875 31.921875 16.328125 31.5 16.332031 Z M 3.5 24.5 C 3.078125 24.492188 2.6875 24.714844 2.476562 25.078125 C 2.265625 25.441406 2.265625 25.890625 2.476562 26.253906 C 2.6875 26.617188 3.078125 26.839844 3.5 26.832031 L 31.5 26.832031 C 31.921875 26.839844 32.3125 26.617188 32.523438 26.253906 C 32.734375 25.890625 32.734375 25.441406 32.523438 25.078125 C 32.3125 24.714844 31.921875 24.492188 31.5 24.5 Z M 3.5 24.5 "/>
</g>
</svg>
