<svg width="20" height="20" viewBox="0 0 20 20" fill="none" xmlns="http://www.w3.org/2000/svg">
<path d="M20 10C20 4.47715 15.5228 0 10 0V0C4.47715 0 0 4.47715 0 10V10C0 15.5228 4.47715 20 10 20V20C15.5228 20 20 15.5228 20 10V10Z" fill="#D6FB00"/>
<path d="M11.5808 12.2633L9.3175 10L11.5808 7.73667C11.8083 7.50917 11.8083 7.14167 11.5808 6.91417C11.3533 6.68667 10.9858 6.68667 10.7583 6.91417L8.08083 9.59167C7.85333 9.81917 7.85333 10.1867 8.08083 10.4142L10.7583 13.0917C10.9858 13.3192 11.3533 13.3192 11.5808 13.0917C11.8025 12.8642 11.8083 12.4908 11.5808 12.2633Z" fill="#444444"/>
</svg>
