<svg width="51" height="33" viewBox="0 0 51 33" fill="none" xmlns="http://www.w3.org/2000/svg">
<path d="M41.0798 25.2066C41.0798 27.887 40.4938 30.4646 39.4103 32.8823C45.7162 28.6969 49.7172 22.7222 49.8821 16.0739L50.0042 15.9379V0.000194609H29.2314V20.6283H40.4968C40.8783 22.112 41.0798 23.6412 41.0798 25.2066Z" fill="#D6FB00"/>
<path d="M11.3552 20.6284C11.7581 22.1484 11.9687 23.717 11.9687 25.3213C11.9687 28.0019 11.3796 30.5825 10.2961 33.0002C16.6841 28.7604 20.7069 22.6892 20.774 15.938H20.777V15.8564C20.777 15.8232 20.777 15.793 20.777 15.7597C20.777 15.7264 20.777 15.6932 20.777 15.66V0.00019455H0.00419998V20.6283L11.3552 20.6284Z" fill="#D6FB00"/>
</svg>
