<svg width="28" height="28" viewBox="0 0 28 28" fill="none" xmlns="http://www.w3.org/2000/svg">
<path d="M14.0002 10.5767C13.3231 10.5767 12.6613 10.7775 12.0983 11.1536C11.5354 11.5298 11.0966 12.0644 10.8375 12.69C10.5784 13.3155 10.5106 14.0038 10.6427 14.6678C10.7748 15.3319 11.1008 15.9418 11.5796 16.4206C12.0583 16.8993 12.6683 17.2254 13.3323 17.3575C13.9964 17.4896 14.6847 17.4218 15.3102 17.1627C15.9357 16.9036 16.4703 16.4648 16.8465 15.9018C17.2227 15.3389 17.4234 14.677 17.4234 14C17.4234 13.5504 17.3349 13.1053 17.1629 12.6899C16.9908 12.2746 16.7387 11.8972 16.4208 11.5794C16.1029 11.2615 15.7255 11.0093 15.3102 10.8373C14.8949 10.6653 14.4497 10.5767 14.0002 10.5767V10.5767ZM14.0002 16.2224C13.5606 16.2224 13.1309 16.092 12.7655 15.8478C12.4 15.6036 12.1151 15.2565 11.9469 14.8504C11.7787 14.4443 11.7347 13.9975 11.8205 13.5664C11.9062 13.1353 12.1179 12.7393 12.4287 12.4285C12.7395 12.1177 13.1355 11.906 13.5666 11.8203C13.9977 11.7345 14.4446 11.7785 14.8507 11.9467C15.2568 12.1149 15.6038 12.3998 15.848 12.7653C16.0922 13.1308 16.2226 13.5604 16.2226 14C16.2226 14.2918 16.1651 14.5808 16.0535 14.8505C15.9418 15.1201 15.7781 15.3652 15.5717 15.5715C15.3653 15.7779 15.1203 15.9416 14.8507 16.0533C14.581 16.1649 14.292 16.2224 14.0002 16.2224V16.2224Z" fill="#D6FB00"/>
<path d="M20.6265 11.2514C20.6155 10.6984 20.5108 10.1513 20.3168 9.63327C20.1491 9.18852 19.8867 8.78556 19.5478 8.45229C19.2151 8.11305 18.8122 7.85061 18.3674 7.68331C17.8495 7.48917 17.3023 7.38446 16.7492 7.37367C16.0384 7.34131 15.8112 7.33331 14.0007 7.33331C12.1903 7.33331 11.9628 7.34082 11.2516 7.37367C10.6986 7.3846 10.1514 7.4893 9.63345 7.68331C9.18858 7.85076 8.78557 8.11318 8.45248 8.45229C8.11305 8.78512 7.8506 9.18821 7.68354 9.63327C7.48953 10.1513 7.38483 10.6984 7.3739 11.2514C7.34104 11.9623 7.3335 12.1895 7.3335 14C7.3335 15.8104 7.34104 16.0377 7.37389 16.7485C7.38482 17.3015 7.48953 17.8487 7.68354 18.3667C7.85065 18.8117 8.11309 19.2148 8.45248 19.5477C8.78573 19.8866 9.1887 20.1489 9.63345 20.3166C10.1515 20.5106 10.6986 20.6153 11.2516 20.6263C11.9628 20.6586 12.1897 20.6666 14.0002 20.6666C15.8106 20.6666 16.0379 20.6591 16.7487 20.6263C17.3017 20.6153 17.8489 20.5106 18.3669 20.3166C18.8098 20.1454 19.2121 19.8834 19.5479 19.5477C19.8836 19.2119 20.1456 18.8096 20.3168 18.3667C20.5111 17.8488 20.6158 17.3015 20.6265 16.7485C20.6588 16.0372 20.6663 15.8104 20.6663 14C20.6663 12.1895 20.6588 11.9623 20.6265 11.2514ZM19.4271 16.6941C19.422 17.1169 19.3444 17.5357 19.1978 17.9322C19.0868 18.2197 18.9169 18.4808 18.699 18.6986C18.481 18.9165 18.2198 19.0863 17.9323 19.1971C17.5358 19.3441 17.117 19.4217 16.6942 19.4265C15.9915 19.4588 15.7805 19.4652 14.0001 19.4652C12.2198 19.4652 12.0093 19.4588 11.3068 19.4265C10.884 19.4216 10.4652 19.3441 10.0687 19.1971C9.77917 19.0901 9.51717 18.9198 9.30191 18.6985C9.0803 18.4837 8.90987 18.2218 8.80324 17.9322C8.65626 17.5358 8.57868 17.1169 8.57391 16.6942C8.54158 15.9914 8.53514 15.7804 8.53514 14C8.53514 12.2197 8.54214 12.0092 8.57391 11.3059C8.57924 10.8832 8.6568 10.4645 8.80324 10.0679C8.91025 9.77832 9.08063 9.51633 9.30191 9.30107C9.5168 9.07933 9.7789 8.90889 10.0687 8.8024C10.4652 8.65543 10.884 8.57785 11.3068 8.57307C12.0095 8.54074 12.2206 8.5343 14.0001 8.5343C15.7797 8.5343 15.9909 8.54129 16.6942 8.57307C17.117 8.57839 17.5357 8.65595 17.9323 8.8024C18.2199 8.91323 18.4812 9.08311 18.6991 9.30108C18.9171 9.51904 19.087 9.78026 19.1978 10.0679C19.3448 10.4643 19.4223 10.8831 19.4271 11.3059C19.4595 12.0092 19.4659 12.2197 19.4659 14C19.4659 15.7803 19.4595 15.9908 19.4271 16.6941H19.4271Z" fill="#D6FB00"/>
<path d="M17.5593 9.6413H17.559C17.3469 9.64134 17.1434 9.72563 16.9935 9.87565C16.8435 10.0257 16.7593 10.2291 16.7593 10.4412C16.7593 10.6534 16.8436 10.8568 16.9936 11.0068C17.1436 11.1568 17.347 11.241 17.5591 11.241C17.7713 11.241 17.9747 11.1568 18.1247 11.0068C18.2747 10.8568 18.359 10.6534 18.359 10.4412C18.359 10.2291 18.2748 10.0257 18.1248 9.87565C17.9748 9.72563 17.7714 9.64134 17.5593 9.6413Z" fill="#D6FB00"/>
<rect x="0.5" y="0.5" width="27" height="27" stroke="#D6FB00"/>
</svg>