<svg width="20" height="20" viewBox="0 0 20 20" fill="none" xmlns="http://www.w3.org/2000/svg">
<path d="M0 10C0 4.47715 4.47715 0 10 0C15.5228 0 20 4.47715 20 10C20 15.5228 15.5228 20 10 20C4.47715 20 0 15.5228 0 10Z" fill="#D6FB00"/>
<path d="M8.41917 12.2633L10.6825 10L8.41917 7.73667C8.19167 7.50917 8.19167 7.14167 8.41917 6.91417C8.64667 6.68667 9.01417 6.68667 9.24167 6.91417L11.9192 9.59167C12.1467 9.81917 12.1467 10.1867 11.9192 10.4142L9.24167 13.0917C9.01417 13.3192 8.64667 13.3192 8.41917 13.0917C8.1975 12.8642 8.19167 12.4908 8.41917 12.2633Z" fill="#444444"/>
</svg>
