<svg width="28" height="28" viewBox="0 0 28 28" fill="none" xmlns="http://www.w3.org/2000/svg">
<path d="M20.6666 9.86403C20.1674 10.0854 19.6378 10.2306 19.0956 10.2949C19.6668 9.95313 20.0942 9.41532 20.2983 8.78171C19.7614 9.10062 19.1737 9.32513 18.5609 9.44548C18.1855 9.04565 17.6987 8.76784 17.1634 8.6481C16.6282 8.52837 16.0694 8.57222 15.5594 8.77398C15.0494 8.97574 14.6118 9.32609 14.3033 9.7796C13.9949 10.2331 13.8299 10.7688 13.8296 11.3173C13.8294 11.5271 13.853 11.7363 13.9001 11.9408C12.8125 11.8863 11.7486 11.6037 10.7773 11.1113C9.80608 10.619 8.94921 9.92793 8.26235 9.08297C7.91259 9.68514 7.80543 10.3979 7.96267 11.0763C8.1199 11.7547 8.52972 12.3477 9.10872 12.7346C8.67431 12.7211 8.24944 12.6039 7.86961 12.3926V12.4272C7.8697 13.0587 8.08821 13.6708 8.48811 14.1596C8.888 14.6484 9.44465 14.9839 10.0637 15.109C9.82881 15.1731 9.58642 15.2053 9.34299 15.2049C9.17024 15.2049 8.99786 15.1888 8.8281 15.1568C9.0029 15.7001 9.34311 16.1753 9.80116 16.5158C10.2592 16.8564 10.8122 17.0453 11.3829 17.0562C10.2359 17.9543 8.77976 18.3614 7.33325 18.1884C8.5838 18.9924 10.0394 19.4192 11.5261 19.4179C12.55 19.4249 13.5652 19.2284 14.5125 18.8398C15.4599 18.4512 16.3206 17.8783 17.0447 17.1542C17.7687 16.4302 18.3417 15.5694 18.7303 14.6221C19.1189 13.6747 19.3154 12.6596 19.3084 11.6356C19.3084 11.517 19.3056 11.399 19.3 11.2818C19.8361 10.8941 20.2988 10.414 20.6666 9.86403V9.86403Z" fill="#D6FB00"/>
<rect x="0.5" y="0.5" width="27" height="27" stroke="#D6FB00"/>
</svg>