<svg width="28" height="28" viewBox="0 0 28 28" fill="none" xmlns="http://www.w3.org/2000/svg">
<path d="M21.3159 12.4764C21.347 11.5221 21.1376 10.5754 20.707 9.72332C20.4192 9.36773 20.0134 9.12717 19.5633 9.04522C17.7153 8.88478 15.8603 8.81956 14.0055 8.84987C12.1508 8.8194 10.2958 8.88462 8.44789 9.04522C8.08181 9.11358 7.74286 9.28501 7.47081 9.53936C6.87437 10.0923 6.83083 11.04 6.74103 11.8383C6.64264 13.2773 6.64264 14.7213 6.74103 16.1603C6.75726 16.6109 6.82473 17.0582 6.94212 17.4936C7.02163 17.8307 7.18357 18.1428 7.41339 18.4018C7.68549 18.67 8.03188 18.8501 8.40765 18.9188C9.84487 19.0969 11.2932 19.1699 12.7411 19.1373V19.1373C15.0705 19.1746 17.1229 19.1351 19.5399 18.9534C19.9262 18.8871 20.2831 18.7047 20.563 18.4304C20.7449 18.2496 20.8825 18.0293 20.9655 17.7866C21.2065 17.0565 21.3249 16.2914 21.3159 15.5225C21.3388 15.1258 21.3388 12.8731 21.3159 12.4764ZM16.4424 13.8499C16.4415 13.8495 16.4407 13.849 16.4399 13.8486C15.8871 14.1548 15.2481 14.4794 14.5745 14.8213C13.8977 15.1647 13.1865 15.5253 12.494 15.9018V11.7752V11.7752C13.1521 12.12 13.803 12.4591 14.4575 12.8017C15.1112 13.1439 15.7685 13.4897 16.4399 13.8486C16.4424 13.8471 16.4455 13.8456 16.4481 13.8442L16.4424 13.8499Z" fill="#D6FB00"/>
<rect x="0.5" y="0.5" width="27" height="27" stroke="#D6FB00"/>
</svg>